<?xml version="1.0" standalone="no"?>
<svg xmlns:xlink="http://www.w3.org/1999/xlink" id="wave" style="transform:rotate(0deg); transition: 0.3s" viewBox="0 0 1440 490" version="1.1" xmlns="http://www.w3.org/2000/svg"><defs><linearGradient id="sw-gradient-0" x1="0" x2="0" y1="1" y2="0"><stop stop-color="rgba(111.029, 57.67, 255, 1)" offset="0%"/><stop stop-color="rgba(119.134, 125.185, 136.963, 1)" offset="100%"/></linearGradient></defs><path style="transform:translate(0, 0px); opacity:1" fill="url(#sw-gradient-0)" d="M0,441L240,383.8C480,327,960,212,1440,163.3C1920,114,2400,131,2880,114.3C3360,98,3840,49,4320,73.5C4800,98,5280,196,5760,196C6240,196,6720,98,7200,65.3C7680,33,8160,65,8640,130.7C9120,196,9600,294,10080,318.5C10560,343,11040,294,11520,253.2C12000,212,12480,180,12960,187.8C13440,196,13920,245,14400,269.5C14880,294,15360,294,15840,269.5C16320,245,16800,196,17280,187.8C17760,180,18240,212,18720,220.5C19200,229,19680,212,20160,171.5C20640,131,21120,65,21600,57.2C22080,49,22560,98,23040,163.3C23520,229,24000,310,24480,318.5C24960,327,25440,261,25920,212.3C26400,163,26880,131,27360,130.7C27840,131,28320,163,28800,204.2C29280,245,29760,294,30240,334.8C30720,376,31200,408,31680,359.3C32160,310,32640,180,33120,179.7C33600,180,34080,310,34320,375.7L34560,441L34560,490L34320,490C34080,490,33600,490,33120,490C32640,490,32160,490,31680,490C31200,490,30720,490,30240,490C29760,490,29280,490,28800,490C28320,490,27840,490,27360,490C26880,490,26400,490,25920,490C25440,490,24960,490,24480,490C24000,490,23520,490,23040,490C22560,490,22080,490,21600,490C21120,490,20640,490,20160,490C19680,490,19200,490,18720,490C18240,490,17760,490,17280,490C16800,490,16320,490,15840,490C15360,490,14880,490,14400,490C13920,490,13440,490,12960,490C12480,490,12000,490,11520,490C11040,490,10560,490,10080,490C9600,490,9120,490,8640,490C8160,490,7680,490,7200,490C6720,490,6240,490,5760,490C5280,490,4800,490,4320,490C3840,490,3360,490,2880,490C2400,490,1920,490,1440,490C960,490,480,490,240,490L0,490Z"/></svg>
