<?xml version="1.0" standalone="no"?>
<svg xmlns:xlink="http://www.w3.org/1999/xlink" id="wave" style="transform:rotate(0deg); transition: 0.3s" viewBox="0 0 1440 380" version="1.1" xmlns="http://www.w3.org/2000/svg"><defs><linearGradient id="sw-gradient-0" x1="0" x2="0" y1="1" y2="0"><stop stop-color="rgba(138.062, 0, 255, 1)" offset="0%"/><stop stop-color="rgba(16.15, 4.178, 182.499, 1)" offset="100%"/></linearGradient></defs><path style="transform:translate(0, 0px); opacity:1" fill="url(#sw-gradient-0)" d="M0,152L60,152C120,152,240,152,360,152C480,152,600,152,720,133C840,114,960,76,1080,76C1200,76,1320,114,1440,120.3C1560,127,1680,101,1800,76C1920,51,2040,25,2160,12.7C2280,0,2400,0,2520,31.7C2640,63,2760,127,2880,152C3000,177,3120,165,3240,190C3360,215,3480,279,3600,291.3C3720,304,3840,266,3960,221.7C4080,177,4200,127,4320,133C4440,139,4560,203,4680,209C4800,215,4920,165,5040,158.3C5160,152,5280,190,5400,221.7C5520,253,5640,279,5760,297.7C5880,317,6000,329,6120,335.7C6240,342,6360,342,6480,310.3C6600,279,6720,215,6840,177.3C6960,139,7080,127,7200,139.3C7320,152,7440,190,7560,196.3C7680,203,7800,177,7920,183.7C8040,190,8160,228,8280,221.7C8400,215,8520,165,8580,139.3L8640,114L8640,380L8580,380C8520,380,8400,380,8280,380C8160,380,8040,380,7920,380C7800,380,7680,380,7560,380C7440,380,7320,380,7200,380C7080,380,6960,380,6840,380C6720,380,6600,380,6480,380C6360,380,6240,380,6120,380C6000,380,5880,380,5760,380C5640,380,5520,380,5400,380C5280,380,5160,380,5040,380C4920,380,4800,380,4680,380C4560,380,4440,380,4320,380C4200,380,4080,380,3960,380C3840,380,3720,380,3600,380C3480,380,3360,380,3240,380C3120,380,3000,380,2880,380C2760,380,2640,380,2520,380C2400,380,2280,380,2160,380C2040,380,1920,380,1800,380C1680,380,1560,380,1440,380C1320,380,1200,380,1080,380C960,380,840,380,720,380C600,380,480,380,360,380C240,380,120,380,60,380L0,380Z"/><defs><linearGradient id="sw-gradient-1" x1="0" x2="0" y1="1" y2="0"><stop stop-color="rgba(37.012, 46.589, 107.365, 1)" offset="0%"/><stop stop-color="rgba(126.574, 11, 255, 1)" offset="100%"/></linearGradient></defs><path style="transform:translate(0, 50px); opacity:0.9" fill="url(#sw-gradient-1)" d="M0,38L60,69.7C120,101,240,165,360,202.7C480,241,600,253,720,240.7C840,228,960,190,1080,164.7C1200,139,1320,127,1440,133C1560,139,1680,165,1800,152C1920,139,2040,89,2160,114C2280,139,2400,241,2520,247C2640,253,2760,165,2880,164.7C3000,165,3120,253,3240,285C3360,317,3480,291,3600,266C3720,241,3840,215,3960,221.7C4080,228,4200,266,4320,240.7C4440,215,4560,127,4680,107.7C4800,89,4920,139,5040,133C5160,127,5280,63,5400,69.7C5520,76,5640,152,5760,177.3C5880,203,6000,177,6120,196.3C6240,215,6360,279,6480,310.3C6600,342,6720,342,6840,291.3C6960,241,7080,139,7200,82.3C7320,25,7440,13,7560,12.7C7680,13,7800,25,7920,76C8040,127,8160,215,8280,209C8400,203,8520,101,8580,50.7L8640,0L8640,380L8580,380C8520,380,8400,380,8280,380C8160,380,8040,380,7920,380C7800,380,7680,380,7560,380C7440,380,7320,380,7200,380C7080,380,6960,380,6840,380C6720,380,6600,380,6480,380C6360,380,6240,380,6120,380C6000,380,5880,380,5760,380C5640,380,5520,380,5400,380C5280,380,5160,380,5040,380C4920,380,4800,380,4680,380C4560,380,4440,380,4320,380C4200,380,4080,380,3960,380C3840,380,3720,380,3600,380C3480,380,3360,380,3240,380C3120,380,3000,380,2880,380C2760,380,2640,380,2520,380C2400,380,2280,380,2160,380C2040,380,1920,380,1800,380C1680,380,1560,380,1440,380C1320,380,1200,380,1080,380C960,380,840,380,720,380C600,380,480,380,360,380C240,380,120,380,60,380L0,380Z"/></svg>
